<?xml version="1.0" encoding="UTF-8" standalone="no"?>
<!-- Created with Inkscape (http://www.inkscape.org/) -->

<svg
   xmlns:dc="http://purl.org/dc/elements/1.1/"
   xmlns:cc="http://creativecommons.org/ns#"
   xmlns:rdf="http://www.w3.org/1999/02/22-rdf-syntax-ns#"
   xmlns:svg="http://www.w3.org/2000/svg"
   xmlns="http://www.w3.org/2000/svg"
   xmlns:sodipodi="http://sodipodi.sourceforge.net/DTD/sodipodi-0.dtd"
   xmlns:inkscape="http://www.inkscape.org/namespaces/inkscape"
   width="400mm"
   height="300mm"
   viewBox="0 0 400 300"
   version="1.1"
   id="svg8"
   sodipodi:docname="Fallout Vault Boy.svg"
   inkscape:version="0.92.2 (5c3e80d, 2017-08-06)">
  <defs
     id="defs2">
    <marker
       style="overflow:visible"
       refY="0.0"
       refX="0.0"
       orient="auto"
       id="DistanceX">
      <path
         id="path856"
         style="stroke:#000000; stroke-width:0.5"
         d="M 3,-3 L -3,3 M 0,-5 L  0,5" />
    </marker>
    <pattern
       y="0"
       x="0"
       width="8"
       patternUnits="userSpaceOnUse"
       id="Hatch"
       height="8">
      <path
         id="path859"
         stroke-width="0.25"
         stroke="#000000"
         linecap="square"
         d="M8 4 l-4,4" />
      <path
         id="path861"
         stroke-width="0.25"
         stroke="#000000"
         linecap="square"
         d="M6 2 l-4,4" />
      <path
         id="path863"
         stroke-width="0.25"
         stroke="#000000"
         linecap="square"
         d="M4 0 l-4,4" />
    </pattern>
    <symbol
       id="*MODEL_SPACE" />
    <symbol
       id="*PAPER_SPACE" />
  </defs>
  <sodipodi:namedview
     id="base"
     pagecolor="#ffffff"
     bordercolor="#666666"
     borderopacity="1.0"
     inkscape:pageopacity="0.0"
     inkscape:pageshadow="2"
     inkscape:zoom="0.24748737"
     inkscape:cx="-195.92263"
     inkscape:cy="895.9237"
     inkscape:document-units="mm"
     inkscape:current-layer="g1271"
     showgrid="false"
     inkscape:window-width="1600"
     inkscape:window-height="838"
     inkscape:window-x="-8"
     inkscape:window-y="-8"
     inkscape:window-maximized="1" />
  <metadata
     id="metadata5">
    <rdf:RDF>
      <cc:Work
         rdf:about="">
        <dc:format>image/svg+xml</dc:format>
        <dc:type
           rdf:resource="http://purl.org/dc/dcmitype/StillImage" />
        <dc:title></dc:title>
      </cc:Work>
    </rdf:RDF>
  </metadata>
  <g
     inkscape:label="Layer 1"
     inkscape:groupmode="layer"
     id="layer1"
     transform="translate(0,3)">
    <path
       style="fill:#000000;stroke-width:0.35277778"
       d=""
       id="path826"
       inkscape:connector-curvature="0" />
    <g
       id="g1271"
       transform="matrix(0.26458333,0,0,0.26458333,-465.69525,-71.942624)">
      <g
         id="g870"
         inkscape:label="0" />
      <g
         id="g1409"
         transform="matrix(-1,0,0,1,4372.6493,-2.446708)">
        <path
           inkscape:connector-curvature="0"
           id="path839"
           d="m 176.31263,221.22371 c -0.13582,-0.17243 -0.32681,-0.65212 -0.42442,-1.06597 -0.0976,-0.41384 -0.8927,-2.67117 -1.76685,-5.01629 -0.87415,-2.34513 -2.11625,-5.73113 -2.76021,-7.52446 -1.4773,-4.11409 -3.07814,-7.91922 -3.52691,-8.38338 -0.40827,-0.42224 -1.52403,-0.23434 -5.50714,0.92748 -7.21597,2.10478 -10.41985,2.64464 -22.58494,3.80551 -6.28702,0.59994 -17.18262,0.24205 -21.55856,-0.70816 -2.55765,-0.55539 -8.04577,-2.204 -10.91046,-3.27748 -1.17257,-0.4394 -2.73407,-1.01452 -3.47002,-1.27803 -0.73593,-0.26354 -2.29025,-0.88811 -3.45404,-1.38798 -2.832304,-1.21649 -2.973478,-1.14148 -2.759938,1.46659 0.0929,1.13489 0.325107,3.13567 0.515965,4.44618 0.332735,2.28451 0.627382,4.56117 1.152318,8.90394 0.13342,1.10359 0.417663,3.29255 0.631683,4.8644 0.214012,1.57181 0.298192,2.94782 0.187042,3.05779 -0.111172,0.10992 -0.879222,-0.16028 -1.706861,-0.60053 -1.421339,-0.75607 -1.520834,-0.87 -1.794315,-2.05452 -0.159246,-0.68975 -0.305281,-2.21346 -0.324548,-3.38602 -0.01922,-1.17256 -0.151262,-2.63983 -0.293345,-3.26062 -0.1421,-0.62075 -0.368217,-2.37018 -0.502494,-3.88762 -0.244853,-2.76691 -0.462886,-5.0591 -0.936177,-9.84133 -0.139763,-1.41224 -0.327773,-2.68688 -0.417822,-2.83259 -0.09011,-0.1457 -0.211591,-1.07826 -0.270106,-2.07239 -0.05855,-0.99413 -0.231681,-2.28327 -0.384846,-2.86478 -0.153144,-0.58151 -0.224003,-1.20228 -0.157456,-1.37948 0.06661,-0.17721 0.01633,-0.94298 -0.111811,-1.70169 -0.128014,-0.75872 -0.338539,-2.39528 -0.467834,-3.63683 -0.219945,-2.11213 -0.334467,-3.08915 -0.92699,-7.90737 -0.127683,-1.0383 -0.347239,-2.11053 -0.487878,-2.38274 -0.140649,-0.27223 -0.207495,-0.6289 -0.148561,-0.79265 0.05894,-0.16375 -0.02768,-0.95382 -0.192385,-1.7557 -0.372797,-1.8148 -0.671161,-4.01911 -0.961186,-7.10135 -0.12337,-1.31051 -0.335139,-3.00352 -0.470749,-3.76224 -0.135581,-0.75869 -0.262907,-2.63193 -0.282905,-4.16268 -0.02011,-1.53077 -0.146333,-3.16661 -0.280722,-3.63518 -0.140433,-0.48969 -0.245969,-5.22515 -0.248162,-11.13703 -0.0028,-5.65679 -0.104402,-10.44382 -0.227162,-10.63782 -0.186139,-0.29403 -0.425559,-0.30182 -1.438356,-0.0469 -2.474991,0.62305 -3.233593,0.83838 -3.723186,1.05681 -0.960791,0.42866 -5.54783,1.62672 -9.029344,2.35833 -0.413849,0.0869 -1.711818,0.39179 -2.88437,0.67735 -2.952927,0.71917 -4.281813,0.94446 -6.92128,1.17336 -1.254665,0.1088 -2.419856,0.28354 -2.589317,0.38827 -1.414466,0.8742 -23.018316,0.8622 -25.099335,-0.0138 -0.208345,-0.0877 -1.225304,-0.25732 -2.259915,-0.37693 -1.034624,-0.11959 -2.501891,-0.33811 -3.260606,-0.4856 -0.758717,-0.1475 -2.790326,-0.36853 -4.514668,-0.49121 -5.340017,-0.37986 -8.863817,-1.13359 -11.938028,-2.55351 -0.841053,-0.38846 -1.603876,-0.70629 -1.695172,-0.70629 -0.855512,0 -4.5268375,-3.75673 -5.4776532,-5.60509 -1.2532937,-2.43638 -1.2975663,-5.36891 -0.1150771,-7.62465 l 0.4268772,-0.81435 -1.8731253,-1.7872 c -2.2219618,-2.12005 -2.6535994,-2.92372 -2.6535994,-4.94084 0,-1.5898 0.4612111,-2.95909 1.6091893,-4.77763 0.8602113,-1.36266 0.8210773,-1.80089 -0.2924017,-3.27475 C 4.2351485,100.73133 3.6268507,99.797893 3.4006793,99.341754 2.8153465,98.161279 2.3405036,95.814466 2.5157563,94.968298 2.5978003,94.572471 2.7421295,93.853557 2.8365902,93.370748 3.1946603,91.5407 5.2171709,89.263123 7.323314,88.318199 c 1.4743898,-0.661482 2.930802,-0.904085 7.022824,-1.169842 3.082327,-0.200179 3.933807,-0.45101 4.383523,-1.29131 0.39684,-0.741478 0.311487,-1.379138 -0.394916,-2.950666 -1.428737,-3.178481 -1.92853,-5.394978 -1.938668,-8.597569 -0.02186,-6.898466 2.663199,-12.196121 7.275242,-14.354364 1.873,-0.87648 3.159412,-1.188595 5.631076,-1.366273 1.434414,-0.103141 1.839471,-0.03015 2.946381,0.530772 1.911029,0.968393 2.62874,2.223157 2.73472,4.781028 0.06168,1.489001 -0.05452,2.491702 -0.450344,3.887636 -0.293409,1.034611 -0.59222,2.163281 -0.664017,2.508161 -0.07174,0.344866 -0.299413,1.003454 -0.505785,1.463523 -0.552357,1.231297 -1.334728,4.186887 -1.334728,5.042262 0,1.107815 0.621139,3.284375 1.344855,4.712559 0.577745,1.140127 3.704103,4.33219 4.243017,4.33219 0.111308,0 0.813428,0.451476 1.560372,1.003266 0.746931,0.55179 1.484565,1.003266 1.639204,1.003266 0.53331,0 4.273772,4.042448 4.828151,5.217936 0.640548,1.35824 1.744581,2.007785 5.571765,3.278127 5.497305,1.824694 11.34655,3.165192 16.486866,3.778379 1.066759,0.12726 2.048969,0.299 2.182715,0.38165 0.381148,0.23557 15.982073,0.21869 16.358915,-0.0177 0.185051,-0.11607 1.803739,-0.29675 3.597061,-0.40146 6.300554,-0.367917 13.724197,-1.167181 14.068317,-1.514652 0.1024,-0.10352 0.39321,-0.18812 0.64612,-0.18812 0.2529,0 0.45984,-0.06731 0.45984,-0.149659 0,-0.08224 -0.69038,-0.900572 -1.53413,-1.818382 -4.492726,-4.886928 -7.490438,-10.624009 -8.735251,-16.717641 -0.169075,-0.827686 -0.367165,-1.730625 -0.440164,-2.006521 -0.07298,-0.275895 -0.222126,-1.178834 -0.331421,-2.006519 -0.109295,-0.827699 -0.313017,-2.294966 -0.45275,-3.260594 -0.272513,-1.883378 0.009,-10.320267 0.434918,-13.042399 0.348954,-2.229425 1.100712,-5.326789 1.521849,-6.270381 0.123116,-0.275907 0.471708,-1.235266 0.774632,-2.131936 0.302901,-0.896658 0.70534,-1.935074 0.894289,-2.307591 0.513586,-1.012438 0.442534,-1.359892 -0.756189,-3.698439 -1.395342,-2.72212 -1.910959,-4.533901 -1.906349,-6.698752 0.004,-1.848655 0.351341,-3.091221 1.544242,-5.523097 l 0.759637,-1.548651 -0.531886,-1.421625 c -1.032797,-2.760411 -0.918126,-7.002412 0.249881,-9.243269 1.193151,-2.289149 4.002512,-4.906845 6.632502,-6.179989 1.60923,-0.779018 1.82463,-0.479782 1.15243,1.600949 -0.65446,2.025754 -0.68717,3.451388 -0.0913,3.980917 0.72557,0.644894 2.31381,1.192527 3.45854,1.192527 1.83809,0 3.10537,-0.745461 5.14915,-3.028895 2.9576,-3.304463 4.17013,-4.378509 5.88918,-5.216685 1.50726,-0.734909 1.7819,-0.783766 4.40531,-0.783766 1.53881,0 3.26241,-0.121359 3.83022,-0.269602 0.5678,-0.148281 1.45959,-0.379753 1.98179,-0.514365 0.9883,-0.254778 1.80948,-0.989799 4.67421,-4.1837414 0.88585,-0.9876378 2.05234,-2.1018098 2.59219,-2.4759345 0.88731,-0.6148941 1.18483,-0.6780109 3.0981,-0.6571187 1.16411,0.012685 2.25497,0.1354284 2.42413,0.272717 0.16918,0.1372885 0.49338,0.2899662 0.72045,0.3393006 0.42325,0.09196 1.51986,0.9484533 3.873,3.0249601 1.76107,1.554013 2.64143,1.9820962 4.61087,2.2419972 5.3044,0.7000077 6.45114,1.1235057 8.16424,3.0151247 0.80117,0.884634 1.87559,2.359615 1.87559,2.574806 0,0.07035 0.5661,1.086308 1.25801,2.257742 1.26555,2.142589 2.11502,2.986344 3.78587,3.760311 2.96796,1.374828 8.76019,9.575347 10.1116,14.315846 0.23595,0.827686 0.53424,1.764142 0.66286,2.081031 0.38493,0.948392 0.27676,9.212679 -0.14675,11.212088 -0.20453,0.965577 -0.37186,2.029811 -0.37186,2.364942 0,0.335117 -0.10603,0.955929 -0.23572,1.379564 -0.12963,0.423649 -0.53361,1.786053 -0.89767,3.027588 -0.36408,1.241537 -0.88995,2.878115 -1.16859,3.636831 -0.27864,0.758715 -0.67204,1.830951 -0.8742,2.382741 -0.20218,0.551792 -0.92465,2.142517 -1.60548,3.534921 -0.68086,1.392405 -1.23792,2.608135 -1.23792,2.701628 0,0.09347 0.2846,0.600059 0.63246,1.125693 1.29993,1.964322 1.71604,4.363636 1.13836,6.563915 -0.68712,2.617218 -1.71144,4.387065 -3.53772,6.112488 -1.93389,1.827084 -3.02416,2.396249 -5.1036,2.664267 -0.84249,0.108544 -1.70111,0.271348 -1.90803,0.361689 -0.20692,0.09033 -1.05341,1.015477 -1.88111,2.055879 -0.8277,1.040403 -2.20287,2.755223 -3.05594,3.810726 -0.8531,1.055488 -1.55721,2.03194 -1.56471,2.169881 -0.0147,0.273579 1.15448,0.846536 3.11576,1.526589 0.68974,0.239168 1.82098,0.685668 2.51385,0.992243 0.69288,0.306556 2.27301,0.976781 3.51142,1.489391 1.23839,0.51259 3.211,1.422252 4.38356,2.021456 1.17257,0.599209 2.4141,1.208596 2.75896,1.354206 0.34489,0.14559 0.79635,0.37373 1.00328,0.50696 0.20692,0.13325 1.89992,1.11265 3.76221,2.17646 1.86231,1.0638 3.66818,2.12197 4.01306,2.35145 6.69607,4.45587 7.53953,5.05448 10.0691,7.1461 4.52606,3.7425 12.47585,11.7919 15.45929,15.65298 0.91525,1.18447 2.21255,2.76362 2.88298,3.50922 1.30858,1.45536 2.71436,3.37528 4.32002,5.90004 0.55179,0.86765 1.48295,2.14523 2.06923,2.83908 0.58628,0.69384 1.06595,1.36133 1.06595,1.48327 0,0.12199 0.40744,0.83992 0.90541,1.59549 0.78676,1.19375 0.92277,1.62618 1.03791,3.29996 0.0961,1.39719 0.0189,2.29269 -0.28148,3.2606 -0.22767,0.73391 -0.53306,1.78587 -0.67865,2.33767 -0.52773,2.00005 -0.79459,2.78231 -1.38513,4.06021 -0.3307,0.71568 -0.60173,1.50576 -0.60224,1.75571 0,0.24995 -0.20556,0.79305 -0.45563,1.20691 -0.25009,0.41384 -0.6549,1.3732 -0.89959,2.13192 -0.2447,0.75873 -0.59115,1.54879 -0.76989,1.75571 -0.17876,0.20692 -0.96272,1.78706 -1.74221,3.51142 -0.77948,1.72434 -1.54531,3.36092 -1.70182,3.63681 -0.5372,0.94684 -2.14897,4.01686 -4.0162,7.64987 -1.02806,2.00025 -2.21293,4.14473 -2.63306,4.76549 -0.4201,0.62077 -0.97832,1.5326 -1.24048,2.02632 -0.6774,1.27576 -1.44221,2.24212 -3.67158,4.639 l -1.95706,2.10412 0.68904,1.19592 c 0.37897,0.65776 0.93166,1.59097 1.22823,2.07378 0.53073,0.86415 1.80463,4.09428 2.05528,5.21154 0.20998,0.93608 -0.42751,2.75379 -2.13063,6.07514 -1.00863,1.96695 -1.98287,3.49779 -2.61453,4.10826 -1.00682,0.973 -1.0069,0.97304 -2.42393,0.75761 -1.76078,-0.2677 -14.97442,-0.29672 -15.23727,-0.0335 -0.10565,0.10577 -0.0585,0.32586 0.10477,0.48908 0.16324,0.16325 0.2968,0.4945 0.2968,0.73612 0,0.24163 0.40051,1.37594 0.89002,2.5207 0.48951,1.14476 1.12312,2.6457 1.40807,3.33544 0.28493,0.68974 0.62454,1.46044 0.75469,1.71267 0.37468,0.72616 -0.13264,1.07159 -2.03537,1.38581 -2.15698,0.35622 -2.15595,0.35624 -2.457,-0.0261 z m 17.4679,-13.17681 c 0.49597,-0.52225 1.33553,-1.82908 1.86571,-2.90406 1.20979,-2.45286 1.32902,-4.39081 0.42635,-6.93142 -0.79281,-2.23148 -1.71153,-4.00769 -2.16242,-4.1807 -1.22627,-0.47057 -4.70155,2.1311 -5.55495,4.15854 -0.47978,1.13983 -0.22636,2.41547 0.58557,2.94745 0.58784,0.38519 0.69314,0.38368 1.54436,-0.0222 0.87213,-0.4159 0.92844,-0.41519 1.24365,0.0159 0.18158,0.24835 0.45165,0.90275 0.60018,1.45424 0.25529,0.94812 0.23111,1.03379 -0.44408,1.57411 -0.92928,0.74362 -1.37522,0.72196 -2.38354,-0.11584 -2.31295,-1.92175 -2.82675,-2.91525 -2.64275,-5.11 0.15939,-1.9012 0.41239,-2.47229 2.04184,-4.60909 1.43758,-1.88518 1.41546,-2.41793 -0.11231,-2.70981 -6.21833,-1.18798 -7.51272,-1.85094 -11.44303,-5.86092 -1.3965,-1.42481 -2.66854,-2.59057 -2.82674,-2.59057 -0.41617,0 -2.66199,3.53659 -3.31177,5.21514 -0.30476,0.78731 -0.60619,2.1339 -0.66983,2.99242 -0.2987,4.02887 2.47583,14.42357 4.28683,16.06051 0.69523,0.6284 2.46065,1.05741 4.48194,1.0891 0.87005,0.0136 2.2027,0.11055 2.96141,0.21549 0.75872,0.1049 3.45678,0.20659 5.99567,0.22601 l 4.61625,0.0353 z m -52.52191,-6.5646 c 0.96564,-0.1345 2.65864,-0.36878 3.76223,-0.52061 4.16891,-0.57351 5.09582,-0.73279 8.02608,-1.37925 1.65538,-0.3652 3.46125,-0.75973 4.01304,-0.87674 3.00308,-0.63681 9.86342,-2.98054 10.22174,-3.49211 0.23616,-0.33717 0.26803,-1.24696 0.12885,-3.67866 -0.10164,-1.7769 -0.1991,-5.34247 -0.21649,-7.92352 -0.0218,-3.25631 -0.12538,-4.82111 -0.33809,-5.11198 -0.28122,-0.38459 -0.57277,-0.33238 -3.53228,0.63262 -6.34002,2.06728 -9.26862,2.67304 -20.75297,4.29265 -4.173,0.58852 -9.52561,0.16142 -11.12701,-0.88786 -1.47741,-0.96804 -1.79698,-3.16192 -1.99141,-13.67082 -0.21752,-11.75816 0.2372,-19.66985 1.91729,-33.35844 0.12697,-1.03461 0.34432,-2.84047 0.48298,-4.01304 0.30645,-2.59148 0.84423,-5.4165 1.19661,-6.28591 0.46532,-1.148 1.90771,-2.17512 3.49154,-2.48628 5.96498,-1.17187 10.44988,-3.24058 15.37753,-7.09302 4.20479,-3.28735 7.84842,-8.44241 9.21439,-13.03665 0.5489,-1.84616 0.6994,-4.539611 0.27265,-4.879262 -0.18275,-0.145439 -1.46095,-0.732993 -2.84044,-1.305632 -1.37948,-0.57264 -2.70074,-1.14954 -2.93611,-1.281972 -0.2354,-0.132465 -0.85616,-0.309028 -1.37951,-0.392385 -1.15806,-0.184466 -1.80641,0.411572 -2.33724,2.148643 -2.22787,7.290378 -8.08821,12.564738 -16.45076,14.805728 -1.37798,0.36928 -2.68739,0.50784 -4.84223,0.51244 -5.01754,0.0101 -8.24634,-1.11384 -11.0092,-3.83427 -0.86211,-0.84885 -1.9067,-2.1363 -2.32132,-2.86099 -0.72453,-1.26635 -0.84375,-1.35239 -3.06457,-2.21206 -2.87338,-1.11228 -3.30674,-1.12453 -3.83222,-0.10842 -1.31779,2.54831 -1.34289,4.33193 -0.11017,7.8244 0.9293,2.63294 1.69654,3.99945 3.22803,5.74959 0.67216,0.76812 1.2939,1.68258 1.38163,2.03216 0.0877,0.34958 -0.0611,1.5818 -0.33076,2.73829 -0.60388,2.58984 -1.45911,7.23675 -1.99566,10.84339 -0.70982,4.7713 -1.39451,10.83832 -1.71246,15.17433 -0.19895,2.71298 -0.23833,25.53477 -0.0487,28.21671 0.0902,1.2752 0.0176,1.62933 -0.47499,2.32006 -0.51769,0.72575 -0.71349,0.81514 -1.78583,0.81514 -0.99723,0 -1.82485,-0.31347 -4.81112,-1.82233 -1.98368,-1.0023 -4.802267,-2.52601 -6.2635,-3.38602 -1.461246,-0.86001 -2.84384,-1.56366 -3.072457,-1.56366 -0.486703,0 -0.557406,1.30501 -0.191127,3.52805 0.123491,0.74957 0.355632,2.4915 0.515836,3.871 0.819823,7.05854 1.940289,12.95683 2.578643,13.57404 0.476537,0.46078 4.799745,2.70099 7.156045,3.70814 3.66945,1.56843 8.68573,3.16188 11.59662,3.68378 4.32173,0.77482 6.13587,1.04561 8.2769,1.23545 2.91812,0.25873 14.51937,0.0909 16.93004,-0.24479 z m 54.14873,-12.98607 c 0.4561,-0.0872 0.99943,-0.56201 1.61995,-1.41568 0.88637,-1.21944 4.00333,-6.55117 4.92984,-8.43275 0.23776,-0.4828 0.6826,-1.16001 0.9886,-1.50487 1.03078,-1.16182 4.66945,-8.18283 9.4163,-18.16926 0.58625,-1.23338 1.27756,-2.85767 1.53623,-3.60953 0.25871,-0.75187 0.56806,-1.49217 0.68749,-1.64515 0.11947,-0.15296 0.47305,-1.32922 0.78575,-2.61395 0.80714,-3.31584 0.64945,-5.34029 -0.59953,-7.69677 -1.21189,-2.28654 -2.46397,-4.269 -3.48494,-5.51795 -0.45108,-0.55179 -1.26579,-1.62402 -1.8105,-2.38274 -1.97942,-2.75717 -3.42736,-4.46681 -8.60315,-10.15801 -3.69825,-4.06656 -7.48012,-7.87787 -8.69928,-8.76699 -0.55178,-0.40245 -1.56759,-1.25955 -2.25733,-1.90473 -5.64389,-5.27917 -21.65916,-15.096197 -25.04797,-15.353908 -0.72189,-0.05486 -0.79251,0.01334 -0.97791,0.944078 -1.24246,6.23816 -2.35226,8.55709 -6.50671,13.59579 -0.96004,1.16437 -5.4447,5.08996 -5.81486,5.08996 -0.0801,0 -1.07897,0.55968 -2.21959,1.24373 -3.03257,1.81871 -8.68443,3.8049 -12.50299,4.39383 -1.76136,0.27165 -2.43181,1.78953 -2.99382,6.7778 -0.12439,1.10359 -0.34495,2.96591 -0.49024,4.13845 -0.7069,5.70512 -1.62484,16.08652 -2.00707,22.6988 -0.21205,3.66794 -0.21854,6.46577 -0.0241,10.40883 0.39571,8.02697 0.49651,9.3894 0.79906,10.80005 0.2408,1.12295 0.38569,1.33216 1.14088,1.64771 1.61538,0.67494 6.75883,0.72428 10.997,0.1054 6.37643,-0.93103 6.72778,-0.99099 8.27691,-1.41265 0.82768,-0.2253 1.95635,-0.51557 2.50816,-0.64508 2.78004,-0.65242 10.31387,-2.80264 11.05048,-3.15392 0.46266,-0.22062 0.90525,-0.56806 0.98353,-0.77206 0.0783,-0.20401 0.37544,-2.30172 0.66033,-4.66158 1.01061,-8.37114 1.01057,-8.37091 3.30134,-17.08224 1.7707,-6.73345 1.79525,-7.23276 0.37025,-7.52808 -0.44848,-0.0929 -1.23111,-0.45068 -1.73922,-0.79494 -1.08394,-0.73446 -2.30123,-1.42475 -5.22114,-2.96082 -1.78709,-0.94013 -4.19163,-2.63641 -3.73716,-2.63641 0.0723,0 0.59875,0.22573 1.16978,0.50163 0.57104,0.27589 1.15812,0.50162 1.3046,0.50162 0.14648,0 0.46232,0.10842 0.70184,0.2409 0.23955,0.1325 1.28204,0.59485 2.31665,1.02745 1.03462,0.4326 2.46667,1.05782 3.18236,1.3894 0.71569,0.33156 1.39271,0.60284 1.50451,0.60284 0.11181,0 1.10635,0.44206 2.21015,0.98233 2.11955,1.03745 10.14253,4.2848 10.58613,4.2848 0.45476,0 4.18584,1.27471 4.50404,1.5388 0.35232,0.29236 -0.14288,1.27668 -2.25022,4.47303 -1.83458,2.78269 -2.41249,3.71758 -3.18311,5.14946 -0.37123,0.68972 -0.93504,1.70553 -1.25294,2.25733 -0.75447,1.30961 -2.0077,3.81626 -2.0077,4.01571 0,0.0858 -0.26907,0.51549 -0.59793,0.95463 -0.32888,0.43912 -0.68379,1.08059 -0.78874,1.42546 -0.1049,0.34487 -0.56704,1.36067 -1.02688,2.25732 -1.1319,2.20712 -2.10114,4.96022 -2.10114,5.96823 0,1.14924 0.5218,2.06591 2.72985,4.79566 3.12524,3.86364 6.1686,5.99404 9.30929,6.51669 1.47772,0.2459 7.23926,0.3094 8.37494,0.0924 z m -23.42387,-8.38685 c 0,-0.13225 -0.12337,-0.47087 -0.274,-0.75245 -0.22783,-0.42568 -0.1274,-0.72948 0.59571,-1.80194 0.47834,-0.70945 1.65517,-2.75719 2.61515,-4.55052 1.76104,-3.28974 2.15308,-4.08677 3.5741,-7.26626 0.42977,-0.96158 1.10122,-2.25956 1.49208,-2.88438 0.64179,-1.02592 2.136,-3.79333 4.46243,-8.26483 0.46095,-0.88594 0.96128,-1.75924 1.11179,-1.94062 0.70256,-0.84651 -0.34956,-1.45231 -5.81542,-3.34843 -1.73173,-0.60074 -3.32355,-1.02514 -3.53735,-0.9431 -0.34733,0.13329 -1.35714,2.93758 -1.96617,5.46025 -0.11659,0.48282 -0.38549,1.55506 -0.59759,2.38274 -0.21212,0.82771 -0.6251,2.63356 -0.91772,4.01306 -0.29264,1.37948 -0.65321,3.01606 -0.80128,3.63682 -0.35211,1.47605 -0.65174,3.38987 -0.94246,6.01956 -0.12962,1.17258 -0.3109,2.63984 -0.40283,3.2606 -0.1417,0.9569 0.25473,6.24396 0.54037,7.20671 0.10301,0.3472 0.86319,0.14709 0.86319,-0.22721 z m -63.08117,-3.71537 c 0.087,-0.27396 0.0253,-2.05634 -0.13709,-3.96086 -0.19553,-2.29363 -0.25088,-6.76181 -0.16394,-13.23404 0.15808,-11.76868 0.18378,-12.22281 1.21252,-21.43419 0.55788,-4.99526 1.74613,-12.07161 2.62545,-15.63532 0.69564,-2.81933 0.73044,-2.6749 -1.24898,-5.18349 -1.38274,-1.75242 -2.40107,-3.71999 -3.005,-5.80622 -0.53167,-1.83665 -0.54032,-5.78378 -0.0171,-7.803 0.21638,-0.83503 0.32385,-1.7954 0.23884,-2.13413 l -0.15459,-0.61589 -3.31131,0.1305 c -1.82122,0.0718 -5.39935,0.31718 -7.951391,0.54532 -21.870502,1.95511 -24.778354,1.94634 -38.374693,-0.11557 -1.862296,-0.28241 -3.893905,-0.62102 -4.514679,-0.75245 -0.620761,-0.13142 -1.847473,-0.31442 -2.726014,-0.406677 l -1.597344,-0.16773 0.134738,0.976317 c 0.07412,0.53699 0.263269,1.48423 0.420382,2.10499 1.724242,6.81304 1.618676,15.29033 -0.239073,19.19776 -1.028658,2.16358 -3.456665,5.49662 -5.910301,8.11335 -1.304791,1.3915 -2.372328,2.63214 -2.372328,2.75694 0,0.46614 0.96265,0.53142 7.835914,0.53142 7.157589,0 12.349314,-0.36402 16.743992,-1.17401 1.172552,-0.21611 2.696265,-0.47971 3.385997,-0.58578 3.048769,-0.46885 4.547909,-0.78513 10.796819,-2.27773 4.43164,-1.05853 8.118254,-2.3418 8.499441,-2.95858 0.09037,-0.14608 0.234388,-0.86083 0.320241,-1.58834 0.120731,-1.02277 0.323283,-1.47919 0.89327,-2.0125 0.405445,-0.37937 0.963309,-0.68975 1.239678,-0.68975 0.472455,0 0.493573,0.11633 0.352934,1.94382 -0.340886,4.42933 -0.454722,21.63261 -0.173845,26.27291 0.38669,6.38855 1.072465,14.41101 1.420294,16.61479 0.167708,1.06262 0.88945,1.88834 3.032936,3.4699 2.389803,1.76328 11.066122,6.35253 12.038722,6.36775 0.33072,0.005 0.61,-0.18862 0.70551,-0.48954 z M 39.853382,132.34068 c 3.569077,-2.28773 8.093493,-7.62348 9.437229,-11.12956 1.24842,-3.25733 1.29092,-3.51162 1.294676,-7.74618 0.0025,-2.26015 -0.102387,-4.51749 -0.232113,-5.01631 -0.129675,-0.49882 -0.424641,-1.64058 -0.655498,-2.53725 -0.492231,-1.91188 -1.080253,-3.15688 -1.346323,-2.8505 -0.103645,0.11935 -0.384516,1.06345 -0.624242,2.09805 -0.239714,1.03462 -0.81947,2.63707 -1.28832,3.561 -0.815237,1.60651 -0.845878,1.76555 -0.701253,3.64099 0.117464,1.52275 0.03793,2.40861 -0.355709,3.96345 -1.719744,6.79279 -5.332402,12.35938 -9.681515,14.91781 -1.053794,0.61993 -1.916004,1.20591 -1.916004,1.3022 0,0.26709 2.262491,0.90111 3.320744,0.93057 0.714471,0.02 1.369391,-0.2504 2.748328,-1.13427 z m -8.955955,-1.5855 c 3.509176,-0.70594 5.834634,-1.90621 8.072426,-4.16657 2.790022,-2.81816 4.444891,-6.70277 4.748338,-11.14625 0.148998,-2.18174 -0.05954,-2.70955 -0.894106,-2.26291 -0.895691,0.47936 -0.874382,0.12937 0.08869,-1.45598 3.922738,-6.45753 3.981142,-11.02106 0.225279,-17.600354 -1.910313,-3.346363 -3.164248,-4.815376 -6.089964,-7.134464 -3.174788,-2.516526 -4.147036,-3.571137 -5.152275,-5.588776 -0.626729,-1.25793 -0.734619,-1.797711 -0.822674,-4.116006 -0.08543,-2.249828 0.0025,-3.09539 0.555699,-5.39253 0.361373,-1.498373 0.768464,-3.205619 0.904647,-3.793879 0.388108,-1.676617 0.31415,-5.370394 -0.119977,-5.990176 -0.628374,-0.897122 -1.935413,-1.342693 -3.93422,-1.341172 -5.131924,0.0038 -8.965653,2.786103 -10.324287,7.492543 -0.144212,0.499604 -0.303924,2.633751 -0.354904,4.742548 -0.08631,3.570206 -0.04724,3.983014 0.566677,5.995854 0.623463,2.044045 3.054561,7.1398 3.704795,7.765524 0.165354,0.159122 1.090717,0.595673 2.056358,0.970113 3.498825,1.356726 8.269915,3.848934 9.578071,5.003144 1.558551,1.37515 2.511076,3.193916 2.990541,5.7102 0.504165,2.645961 0.118218,4.167301 -1.470043,5.794171 -0.65526,0.6712 -1.191372,1.35711 -1.191372,1.52423 0,0.16716 0.348157,0.6354 0.773678,1.04057 1.680687,1.60028 2.988769,4.10486 2.988355,5.72182 -2.39e-4,0.9492 -1.22822,3.61027 -1.970981,4.27119 -0.700938,0.62368 -0.678638,1.32921 0.07715,2.44141 0.85265,1.2548 1.075064,3.17248 0.53267,4.59273 -1.308583,3.42645 -5.51228,4.74224 -15.232062,4.76772 -2.159989,0.007 -4.018291,0.10038 -4.129575,0.21042 -0.375105,0.37106 0.323924,1.04405 1.43517,1.38171 3.553938,1.07988 8.664228,1.31221 12.387906,0.56317 z m -4.344087,-3.90712 c 1.401149,-0.21046 3.065189,-0.61128 3.697886,-0.89071 1.959786,-0.86558 3.533084,-2.74355 3.533084,-4.21731 0,-1.9891 -4.887687,-4.22041 -11.537493,-5.26705 -0.896671,-0.14113 -2.376952,-0.37432 -3.289527,-0.5182 -0.912561,-0.14389 -2.574002,-0.26162 -3.692095,-0.26162 -5.145378,0 -7.6120522,3.24963 -5.5438872,7.30356 1.0961562,2.14867 4.3662592,3.43809 10.0173492,3.94994 3.572029,0.32355 4.050076,0.31662 6.814683,-0.0986 z m 7.776253,-10.93571 c 0.659933,-0.34017 1.24386,-1.7236 1.362882,-3.22896 0.09121,-1.15418 -0.0076,-1.6045 -0.601817,-2.75729 -0.575761,-1.11589 -1.06563,-1.61907 -2.577067,-2.64711 -1.809408,-1.23068 -4.961633,-2.71116 -6.755361,-3.1727 -0.482821,-0.12424 -1.555057,-0.40484 -2.382744,-0.62359 -1.036495,-0.27392 -3.036482,-0.43071 -6.425596,-0.50373 -4.310747,-0.0928 -5.161221,-0.0443 -6.861204,0.39111 -2.9459894,0.7547 -3.748902,1.83507 -3.7034355,4.98328 0.060049,4.15597 2.3138099,7.0474 4.7194155,6.05463 1.268357,-0.52342 9.427732,-0.59685 12.047564,-0.10841 2.683689,0.50034 4.074737,0.8113 5.74119,1.28334 2.987436,0.84625 4.281411,0.92466 5.436173,0.32943 z m 101.285667,-6.93962 c 6.21875,-1.68281 11.05786,-4.90247 13.02718,-8.66746 1.25984,-2.408612 0.99842,-3.018775 -0.91739,-2.141144 -2.01886,0.924837 -4.64903,1.480917 -4.92126,1.040444 -0.0791,-0.127974 0.55668,-0.723772 1.41283,-1.324009 4.60806,-3.230537 8.71567,-7.174713 11.82643,-11.355884 3.0894,-4.152489 2.83114,-3.939031 4.7658,-3.939031 4.09388,0 7.75374,-3.553739 8.09979,-7.86495 0.16526,-2.058656 -0.36796,-3.699555 -1.83738,-5.654317 -0.60904,-0.810198 -1.10735,-1.595786 -1.10735,-1.74575 0,-0.149964 0.33862,-0.447744 0.75246,-0.661754 0.96369,-0.498361 0.95031,-0.981672 -0.0775,-2.797586 -2.03991,-3.604404 -5.35634,-7.797058 -6.72901,-8.506903 -0.94939,-0.490935 -1.47047,-1.068732 -1.47047,-1.630423 0,-0.71928 0.57841,-0.589428 1.75569,0.394138 0.5779,0.482821 1.14918,0.877851 1.26951,0.877851 0.43208,0 3.72874,4.375406 5.03221,6.678839 0.73154,1.292781 1.46765,2.350521 1.63575,2.350521 1.54376,0 -1.01577,-5.682596 -4.40585,-9.781795 -0.62748,-0.758714 -2.18669,-2.410858 -3.46492,-3.671439 -1.27823,-1.26057 -2.32403,-2.417455 -2.32403,-2.570849 0,-0.72717 1.81516,0.202652 3.23041,1.654794 2.54811,2.614492 4.48344,5.349955 6.17356,8.725938 0.69063,1.37949 1.36854,2.508161 1.5065,2.508161 0.38938,0 0.45341,-1.858667 0.11657,-3.386011 -0.73367,-3.32734 -3.32839,-7.105704 -6.63135,-9.656389 -4.7684,-3.682371 -4.47194,-3.387744 -3.96852,-3.94402 0.24751,-0.273483 0.92798,-0.777346 1.51218,-1.119713 2.18478,-1.280368 3.66986,-4.007876 3.28982,-6.042123 -0.31248,-1.672683 -1.33861,-3.245644 -2.66677,-4.08794 -1.07458,-0.681466 -1.32832,-0.732974 -3.61124,-0.732974 -2.41492,0 -3.92132,0.237389 -5.79102,0.912586 -0.5201,0.187816 -1.7384,0.341488 -2.7073,0.341488 h -1.76167 l -2.24375,-2.126434 c -2.31975,-2.198421 -3.97543,-3.224376 -6.13646,-3.802498 -2.24098,-0.599518 -3.29834,-0.415559 -6.772,1.178193 -0.86498,0.396851 -1.88662,0.609819 -3.29266,0.686377 -2.02421,0.110178 -2.05338,0.103017 -4.13846,-1.016972 -4.26711,-2.292152 -5.20271,-1.93731 -10.08012,3.822988 -0.99085,1.170216 -2.24412,2.557884 -2.78502,3.083694 -1.0272,0.99858 -4.22488,2.68933 -5.08625,2.68933 -0.63379,0 -0.96059,0.389904 -2.52254,3.009787 -2.46728,4.138306 -4.246131,8.099951 -5.57473,12.415356 -0.678788,2.204803 -0.918925,3.26518 -1.517342,6.700513 -0.371175,2.130855 -0.366565,11.032463 0.007,12.93334 0.154946,0.789042 0.404184,2.055402 0.55387,2.814106 0.77508,3.928416 2.11973,7.704895 4.090372,11.487895 2.96666,5.695035 7.57029,10.754956 12.91449,14.194589 3.92121,2.52378 9.56105,4.49105 14.73703,5.1405 l 3.42028,0.42918 -1.36609,0.42229 c -0.75134,0.23227 -1.95862,0.54621 -2.68285,0.69765 -0.72425,0.15147 -1.31678,0.38168 -1.31678,0.51161 0,1.00936 5.72495,1.35252 8.77853,0.52621 z m -19.0219,-18.380577 c -0.84972,-0.424616 -1.54495,-0.862097 -1.54495,-0.972199 0,-0.199223 1.39756,-0.407542 4.5256,-0.67458 1.29813,-0.110807 1.70853,-0.05905 1.96307,0.247678 0.58341,0.702961 0.24034,1.43998 -0.84534,1.816053 -1.5101,0.523089 -2.39796,0.432755 -4.09838,-0.416952 z m 0.96319,-4.223986 c -2.84646,-0.486111 -7.62933,-2.797045 -11.17878,-5.401248 -0.46057,-0.337919 -1.56852,0.30479 -1.66271,0.964509 -0.0415,0.290846 -0.1751,0.5288 -0.29686,0.5288 -0.40789,0 -2.91382,-4.490093 -2.91382,-5.220918 0,-0.520987 0.3781,-1.106874 1.41767,-2.19675 0.77971,-0.817447 1.51335,-1.486274 1.63029,-1.486274 0.11697,0 0.21264,0.343735 0.21264,0.763853 0,1.102703 0.86405,1.829784 2.63356,2.21607 0.8277,0.180681 1.78706,0.443875 2.13194,0.584882 1.10494,0.451752 3.54144,0.743326 7.27364,0.870426 3.59382,0.122363 4.4478,0.03203 7.90068,-0.836117 0.82769,-0.208105 1.89993,-0.473811 2.38274,-0.590459 1.28209,-0.30974 5.28201,-1.493297 6.07138,-1.79648 0.97269,-0.373597 1.32952,-1.588123 0.86377,-2.939961 -0.19646,-0.570171 -0.26204,-1.095454 -0.14578,-1.167315 0.20532,-0.126885 4.9288,3.430321 6.48376,4.882864 0.92764,0.866544 0.97843,1.574567 0.27414,3.821355 -0.27412,0.874458 -0.49985,1.83006 -0.50165,2.123556 -9.4e-4,0.293497 -0.17252,0.674142 -0.37945,0.845864 -0.32218,0.267392 -0.37622,0.186611 -0.37622,-0.562493 0,-1.145906 -0.82194,-2.198269 -1.71122,-2.190932 -0.36933,0.0025 -1.80018,0.685573 -3.17968,1.516715 -3.80691,2.293684 -7.09656,3.820337 -10.65965,4.946908 -1.17699,0.37214 -4.86929,0.56242 -6.27039,0.323145 z m 6.45029,-2.40488 c 1.79646,-0.37479 2.22196,-0.515633 4.26935,-1.41317 0.58477,-0.256359 1.17177,-0.466112 1.30445,-0.466112 0.2194,0 3.94416,-1.675171 5.99425,-2.69585 1.04992,-0.522733 1.84112,-1.507695 1.74452,-2.171723 -0.0406,-0.27925 -0.46888,-0.774119 -0.9517,-1.099699 -0.94262,-0.635675 -1.87939,-0.651529 -3.88765,-0.06583 -0.55178,0.160932 -1.34185,0.392078 -1.7557,0.513662 -2.87203,0.843755 -5.72239,1.601917 -6.89742,1.834634 -1.79482,0.355494 -9.19299,0.340469 -11.28668,-0.02286 -0.89667,-0.155618 -2.02534,-0.351913 -2.50815,-0.436211 -0.48283,-0.0843 -1.59716,-0.323836 -2.47633,-0.532293 -2.48734,-0.589781 -3.34138,-0.127013 -2.79877,1.516564 0.31883,0.965766 2.04933,1.86295 7.65784,3.970263 3.74524,1.407217 8.06168,1.805136 11.59199,1.06863 z M 117.25683,69.90864 c -0.70433,-0.38238 -3.71332,-5.160844 -3.71332,-5.896997 0,-0.219951 0.63184,-1.125153 1.40411,-2.011533 2.95181,-3.388069 4.52605,-5.465206 6.16303,-8.131874 2.29135,-3.732609 2.25268,-3.683388 2.06982,-2.634503 -0.18925,1.085427 -2.85833,6.581401 -4.75047,9.781792 -1.76144,2.979283 -1.76417,3.66301 -0.0252,6.278219 0.63704,0.958028 1.15826,1.853177 1.15826,1.989235 0,0.202828 -1.29456,1.037488 -1.55515,1.002663 -0.0413,-0.0064 -0.37933,-0.175166 -0.75111,-0.377002 z m 42.44509,-3.354943 c -0.1668,-0.402706 -0.69158,-1.08554 -1.16617,-1.517405 -0.47457,-0.431852 -0.79661,-0.892437 -0.71559,-1.023493 0.59407,-0.961231 2.87663,1.224801 2.87663,2.754997 0,0.767184 -0.64599,0.628161 -0.99487,-0.214099 z m 2.04225,-4.472217 c -0.27043,-0.379351 -1.12218,-1.141195 -1.8928,-1.692998 -1.18791,-0.850613 -1.79482,-1.630296 -1.26901,-1.630296 0.64754,0 3.15118,2.336837 3.96365,3.699531 0.37092,0.622155 -0.32189,0.297076 -0.80184,-0.376237 z m -20.61669,-5.242842 c -3.04383,-2.030201 -5.44905,-3.167539 -7.83226,-3.703613 -2.11114,-0.474868 1.1481,-1.982161 4.32656,-2.000892 1.20438,-0.0076 1.90128,0.133217 2.66755,0.537067 1.33275,0.702421 2.53353,2.336851 2.74299,3.733589 0.16865,1.124612 -0.0101,2.350142 -0.34201,2.350142 -0.10402,0 -0.80727,-0.412329 -1.56283,-0.916293 z m -33.72291,0.06721 c -1.23226,-1.232265 -1.39003,-3.794621 -0.3762,-6.109788 0.48089,-1.098192 1.41037,-1.752774 2.10845,-1.484893 1.92826,0.739933 1.80326,6.424679 -0.17166,7.807975 -0.72608,0.508549 -0.85657,0.49071 -1.56059,-0.213294 z m 35.0966,-13.90975 c -1.12357,-1.081094 -2.33399,-1.962084 -3.32332,-2.418824 -0.85583,-0.395106 -1.55607,-0.790211 -1.55607,-0.877989 0,-0.257855 1.45325,-1.257188 1.82822,-1.257188 0.59226,0 3.27673,2.638814 4.11647,4.046507 1.64572,2.758704 1.39732,2.877035 -1.0653,0.507494 z m -33.47233,-3.29043 c 1.0039,-0.89373 1.91497,-1.204638 2.32587,-0.793742 0.40663,0.406639 -0.0684,0.802699 -1.23974,1.033619 -0.52839,0.104148 -1.18645,0.268659 -1.46233,0.36552 -0.32208,0.113066 -0.18741,-0.103644 0.3762,-0.605397 z M 33.100607,102.96068 c 0.706304,-0.73719 1.436162,-2.49782 1.436162,-3.464437 0,-0.881089 -0.694883,-3.366875 -1.124462,-4.022494 -1.002739,-1.530332 -5.29901,-4.231288 -8.53194,-5.363776 -0.275882,-0.09661 -0.896658,-0.323133 -1.379478,-0.503298 -1.20024,-0.447869 -9.425584,-0.632708 -11.795185,-0.265054 -3.5782342,0.555183 -5.7551198,2.11814 -6.6334963,4.762687 -0.6431118,1.936156 -0.090079,4.538098 1.4360345,6.756452 l 0.7528859,1.0944 1.2851659,-0.15389 c 0.706842,-0.0846 2.018793,-0.26452 2.915461,-0.39971 6.139664,-0.92579 10.607321,-0.82978 13.794835,0.29647 3.673777,1.29803 4.511199,1.61808 4.682659,1.78953 0.09158,0.0916 0.690851,0.16644 1.331788,0.16644 0.945338,0 1.290758,-0.1309 1.82957,-0.69332 z M 171.39922,57.566763 c 0.70421,-1.683513 2.06416,-6.593776 2.45746,-8.872774 0.22912,-1.327668 0.38414,-3.746153 0.38414,-5.99275 0,-4.780866 -0.40624,-6.423637 -2.75881,-11.156561 -2.04131,-4.106748 -3.88617,-6.537583 -6.19178,-8.158506 -1.2874,-0.905087 -1.95592,-1.647334 -3.29253,-3.655624 -2.26303,-3.400307 -3.16842,-4.496917 -4.39873,-5.327894 -1.13542,-0.76687 -3.29529,-1.662006 -4.67299,-1.93667 -3.06322,-0.610698 -6.01767,-1.947022 -7.85047,-3.5508582 -1.49028,-1.3041236 -4.2442,-2.7866162 -5.57876,-3.0031884 -1.58609,-0.2573898 -3.32685,1.1657182 -5.91079,4.8322296 -1.09847,1.558674 -2.34144,3.123606 -2.76216,3.477631 -0.99789,0.839646 -2.34302,0.844821 -4.77819,0.01834 -2.31949,-0.787183 -4.40528,-0.829182 -5.87385,-0.118217 -1.26266,0.611251 -4.13118,3.028681 -6.37742,5.374578 -2.53607,2.648588 -4.82352,3.896694 -7.14148,3.896694 -1.23079,0 -3.95752,-1.313106 -4.55438,-2.193244 -0.25779,-0.380117 -0.58696,-1.14259 -0.7315,-1.694381 -0.37176,-1.419175 -0.96311,-1.316058 -2.160006,0.376638 -1.19088,1.684193 -1.708727,3.519404 -1.71264,6.069612 -0.007,4.017927 1.990812,8.516175 4.343436,9.783528 1.25424,0.675648 4.04383,0.597029 5.71767,-0.161146 1.67066,-0.756732 2.1306,-1.166435 4.71305,-4.198457 5.04686,-5.925452 7.88674,-7.287855 11.18223,-5.364603 2.50083,1.459478 2.94933,1.645875 3.95796,1.644984 0.58209,-5.28e-4 1.39694,-0.205669 1.8108,-0.455899 0.83663,-0.50586 4.17072,-2.303395 6.59365,-3.554906 1.32464,-0.684205 1.74332,-0.788201 2.61322,-0.649103 1.46301,0.233947 3.1093,1.539391 5.5011,4.362215 3.60542,4.255103 4.21326,4.813302 5.2414,4.813302 0.83869,0 3.13636,-0.695863 5.27269,-1.596879 0.49115,-0.20714 1.66936,-0.556666 2.61825,-0.776731 1.43647,-0.333146 1.95875,-0.349929 3.12006,-0.100254 1.87934,0.404013 3.04227,1.01289 3.98471,2.086271 1.03104,1.174286 1.42318,1.963317 1.91061,3.844433 0.37306,1.439691 0.37146,1.650095 -0.022,2.873251 -0.35624,1.10754 -0.82738,1.713628 -2.92941,3.76854 l -2.50488,2.448749 1.35573,1.26876 c 0.74565,0.697823 1.60498,1.439867 1.90959,1.648991 0.77677,0.53326 3.12571,3.460069 4.07623,5.079008 0.82088,1.398171 1.85773,3.887411 2.12506,5.101747 0.21534,0.97828 0.85034,0.857047 1.31373,-0.250806 z M 100.68244,41.808714 c 2.39248,-4.175756 2.27891,-3.871682 1.62151,-4.341424 -0.31147,-0.222541 -1.0964,-0.827875 -1.74431,-1.345192 -1.288355,-1.02867 -2.265016,-1.199464 -2.868501,-0.501627 -1.125067,1.300996 -1.276834,4.406423 -0.333031,6.81472 0.68923,1.758728 1.079286,2.338208 1.483268,2.203545 0.149321,-0.04974 0.977796,-1.323283 1.841064,-2.830022 z"
           style="fill:#00ff00;fill-opacity:1;stroke-width:0.2508153"
           transform="matrix(3.7795276,0,0,3.7795276,1760.1081,271.90913)" />
        <g
           inkscape:label="CUT"
           id="g1122">
          <path
             inkscape:connector-curvature="0"
             d="m 2150.4054,1107.5367 c 8e-4,0 4e-4,0 -1e-4,0"
             style="fill:none;stroke:#ff0000"
             id="path872" />
          <path
             inkscape:connector-curvature="0"
             d="m 2129.815,1106.9548 c -0.4834,-0.055 -0.9287,-0.085 -1.3071,-0.085"
             style="fill:none;stroke:#ff0000"
             id="path874" />
          <path
             inkscape:connector-curvature="0"
             d="m 2128.5079,1106.8698 c -2.5604,0 -18.8083,-16.9023 -161.4502,-167.95274"
             style="fill:none;stroke:#ff0000"
             id="path876" />
          <path
             inkscape:connector-curvature="0"
             d="M 1967.0577,938.91706 C 1861.8027,827.45755 1807.6119,770.73005 1805.9498,770.26786"
             style="fill:none;stroke:#ff0000"
             id="path878" />
          <path
             inkscape:connector-curvature="0"
             d="m 1805.9498,770.26786 c -1.4188,-0.39455 -4.5156,-3.18762 -7.1441,-6.44357"
             style="fill:none;stroke:#ff0000"
             id="path880" />
          <path
             inkscape:connector-curvature="0"
             d="m 1798.8057,763.82429 c -2.5518,-3.16089 -6.1789,-7.52468 -8.0604,-9.69725"
             style="fill:none;stroke:#ff0000"
             id="path882" />
          <path
             inkscape:connector-curvature="0"
             d="m 1790.7453,754.12704 c -4.1907,-4.83934 -7.0677,-10.37959 -7.9621,-15.33269"
             style="fill:none;stroke:#ff0000"
             id="path884" />
          <path
             inkscape:connector-curvature="0"
             d="m 1782.7832,738.79435 c -0.371,-2.05455 -1.0879,-4.25689 -1.5931,-4.89406"
             style="fill:none;stroke:#ff0000"
             id="path886" />
          <path
             inkscape:connector-curvature="0"
             d="m 1781.1901,733.90029 c -0.9532,-1.20202 -0.678,-4.75018 1.2118,-15.62772"
             style="fill:none;stroke:#ff0000"
             id="path888" />
          <path
             inkscape:connector-curvature="0"
             d="m 1770.0716,687.38386 c 0,-10.84283 0.4099,-12.4807 5.0487,-20.17418"
             style="fill:none;stroke:#ff0000"
             id="path890" />
          <path
             inkscape:connector-curvature="0"
             d="m 1775.1203,667.20968 c 2.7235,-4.51678 2.7285,-4.5535 0.9092,-6.61416"
             style="fill:none;stroke:#ff0000"
             id="path892" />
          <path
             inkscape:connector-curvature="0"
             d="m 1776.0295,660.59552 c -8.8392,-10.01177 -12.6702,-24.52562 -9.2187,-34.92466"
             style="fill:none;stroke:#ff0000"
             id="path894" />
          <path
             inkscape:connector-curvature="0"
             d="m 1766.8108,625.67086 c 2.7378,-8.24858 4.4363,-10.9838 10.3474,-16.66242"
             style="fill:none;stroke:#ff0000"
             id="path896" />
          <path
             inkscape:connector-curvature="0"
             d="m 1777.1582,609.00844 c 4.301,-4.13181 6.9236,-5.81824 10.8662,-6.98713"
             style="fill:none;stroke:#ff0000"
             id="path898" />
          <path
             inkscape:connector-curvature="0"
             d="m 1788.0244,602.02131 c 9.1547,-2.71418 19.8384,-4.44285 27.4581,-4.44285"
             style="fill:none;stroke:#ff0000"
             id="path900" />
          <path
             inkscape:connector-curvature="0"
             d="m 1815.4825,597.57846 c 7.6689,0 12.2269,-1.28055 12.2269,-3.43511"
             style="fill:none;stroke:#ff0000"
             id="path902" />
          <path
             inkscape:connector-curvature="0"
             d="m 1827.7094,594.14335 c 0,-0.6831 -1.2218,-3.9101 -2.7152,-7.17117"
             style="fill:none;stroke:#ff0000"
             id="path904" />
          <path
             inkscape:connector-curvature="0"
             d="m 1824.9942,586.97218 c -1.4933,-3.26103 -3.427,-9.11814 -4.297,-13.01579"
             style="fill:none;stroke:#ff0000"
             id="path906" />
          <path
             inkscape:connector-curvature="0"
             d="m 1820.6972,573.95639 c -0.8701,-3.89764 -1.9869,-8.39238 -2.4818,-9.98833"
             style="fill:none;stroke:#ff0000"
             id="path908" />
          <path
             inkscape:connector-curvature="0"
             d="m 1818.2154,563.96806 c -2.0627,-6.65238 -0.3589,-22.23229 4.1259,-37.72821"
             style="fill:none;stroke:#ff0000"
             id="path910" />
          <path
             inkscape:connector-curvature="0"
             d="m 1822.3413,526.23985 c 2.0983,-7.24985 8.0435,-17.22059 13.0401,-21.86942"
             style="fill:none;stroke:#ff0000"
             id="path912" />
          <path
             inkscape:connector-curvature="0"
             d="m 1835.3814,504.37043 c 3.6039,-3.35304 13.4453,-9.78411 14.9726,-9.78411"
             style="fill:none;stroke:#ff0000"
             id="path914" />
          <path
             inkscape:connector-curvature="0"
             d="m 1850.354,494.58632 c 0.5517,0 1.7414,-0.37519 2.6438,-0.83376"
             style="fill:none;stroke:#ff0000"
             id="path916" />
          <path
             inkscape:connector-curvature="0"
             d="m 1852.9978,493.75256 c 3.5766,-1.81748 10.5102,-3.2308 17.7037,-3.60867"
             style="fill:none;stroke:#ff0000"
             id="path918" />
          <path
             inkscape:connector-curvature="0"
             d="m 1870.7015,490.14389 c 8.2843,-0.43518 13.6813,1.2179 19.2361,5.89199"
             style="fill:none;stroke:#ff0000"
             id="path920" />
          <path
             inkscape:connector-curvature="0"
             d="m 1889.9376,496.03588 c 5.4418,4.57892 6.7482,8.68553 6.7482,21.21224"
             style="fill:none;stroke:#ff0000"
             id="path922" />
          <path
             inkscape:connector-curvature="0"
             d="m 1896.6858,517.24812 c 0,6.19574 -0.3702,12.24174 -0.8226,13.43547"
             style="fill:none;stroke:#ff0000"
             id="path924" />
          <path
             inkscape:connector-curvature="0"
             d="m 1895.8632,530.68359 c -0.4524,1.19374 -1.5648,4.72163 -2.472,7.83972"
             style="fill:none;stroke:#ff0000"
             id="path926" />
          <path
             inkscape:connector-curvature="0"
             d="m 1893.3912,538.52331 c -0.9071,3.11812 -1.997,6.5197 -2.422,7.55908"
             style="fill:none;stroke:#ff0000"
             id="path928" />
          <path
             inkscape:connector-curvature="0"
             d="m 1890.9692,546.08239 c -0.425,1.03936 -1.2804,3.59054 -1.9009,5.66927"
             style="fill:none;stroke:#ff0000"
             id="path930" />
          <path
             inkscape:connector-curvature="0"
             d="m 1889.0683,551.75166 c -0.6205,2.07874 -1.4989,4.75623 -1.9522,5.94997"
             style="fill:none;stroke:#ff0000"
             id="path932" />
          <path
             inkscape:connector-curvature="0"
             d="m 1887.1161,557.70163 c -2.8022,7.38075 1.992,21.67998 9.762,29.11652"
             style="fill:none;stroke:#ff0000"
             id="path934" />
          <path
             inkscape:connector-curvature="0"
             d="m 1896.8781,586.81815 c 2.2328,2.13694 8.4784,6.76761 13.8791,10.29035"
             style="fill:none;stroke:#ff0000"
             id="path936" />
          <path
             inkscape:connector-curvature="0"
             d="m 1910.7572,597.1085 c 10.9483,7.1413 23.3815,19.03915 26.0273,24.90663"
             style="fill:none;stroke:#ff0000"
             id="path938" />
          <path
             inkscape:connector-curvature="0"
             d="m 1936.7845,622.01513 c 1.3814,3.06337 2.6626,4.17547 7.0161,6.09024"
             style="fill:none;stroke:#ff0000"
             id="path940" />
          <path
             inkscape:connector-curvature="0"
             d="m 1943.8006,628.10537 c 6.3795,2.80581 13.7095,5.31751 25.1687,8.6243"
             style="fill:none;stroke:#ff0000"
             id="path942" />
          <path
             inkscape:connector-curvature="0"
             d="m 1968.9693,636.72967 c 12.8671,3.7131 13.2026,3.79696 30.2362,7.55908"
             style="fill:none;stroke:#ff0000"
             id="path944" />
          <path
             inkscape:connector-curvature="0"
             d="m 1999.2055,644.28875 c 3.6378,0.80346 10.9178,1.87984 16.1779,2.39192"
             style="fill:none;stroke:#ff0000"
             id="path946" />
          <path
             inkscape:connector-curvature="0"
             d="m 2015.3834,646.68067 c 5.2601,0.51211 10.5751,1.26022 11.811,1.66246"
             style="fill:none;stroke:#ff0000"
             id="path948" />
          <path
             inkscape:connector-curvature="0"
             d="m 2027.1944,648.34313 c 3.3126,1.07811 50.2271,0.72389 65.5544,-0.49492"
             style="fill:none;stroke:#ff0000"
             id="path950" />
          <path
             inkscape:connector-curvature="0"
             d="m 2092.7488,647.84821 c 28.2571,-2.24699 36.6945,-3.12861 38.3327,-4.00536"
             style="fill:none;stroke:#ff0000"
             id="path952" />
          <path
             inkscape:connector-curvature="0"
             d="m 2131.0815,643.84285 c 0.9353,-0.50054 5.145,-0.91007 9.3549,-0.91007"
             style="fill:none;stroke:#ff0000"
             id="path954" />
          <path
             inkscape:connector-curvature="0"
             d="m 2140.4364,642.93278 c 8.9024,0 8.8749,0.24962 0.9878,-8.97638"
             style="fill:none;stroke:#ff0000"
             id="path956" />
          <path
             inkscape:connector-curvature="0"
             d="m 2141.4242,633.9564 c -4.7983,-5.61295 -13.2424,-17.7469 -13.2424,-19.02898"
             style="fill:none;stroke:#ff0000"
             id="path958" />
          <path
             inkscape:connector-curvature="0"
             d="m 2128.1818,614.92742 c 0,-0.3656 -0.6197,-1.34959 -1.3773,-2.18662"
             style="fill:none;stroke:#ff0000"
             id="path960" />
          <path
             inkscape:connector-curvature="0"
             d="m 2126.8045,612.7408 c -1.7687,-1.95443 -8.2789,-17.72405 -10.3552,-25.08361"
             style="fill:none;stroke:#ff0000"
             id="path962" />
          <path
             inkscape:connector-curvature="0"
             d="m 2116.4493,587.65719 c -0.8797,-3.11812 -2.0013,-6.97508 -2.4925,-8.57103"
             style="fill:none;stroke:#ff0000"
             id="path964" />
          <path
             inkscape:connector-curvature="0"
             d="m 2113.9568,579.08616 c -0.4912,-1.59596 -0.8931,-4.01314 -0.8931,-5.37155"
             style="fill:none;stroke:#ff0000"
             id="path966" />
          <path
             inkscape:connector-curvature="0"
             d="m 2113.0637,573.71461 c 0,-1.3584 -0.4715,-3.66681 -1.0479,-5.12976"
             style="fill:none;stroke:#ff0000"
             id="path968" />
          <path
             inkscape:connector-curvature="0"
             d="m 2112.0158,568.58485 c -2.2378,-5.68049 -3.0878,-16.82057 -3.0509,-39.98278"
             style="fill:none;stroke:#ff0000"
             id="path970" />
          <path
             inkscape:connector-curvature="0"
             d="m 2108.9649,528.60207 c 0.042,-25.97442 0.652,-34.69429 2.7553,-39.35542"
             style="fill:none;stroke:#ff0000"
             id="path972" />
          <path
             inkscape:connector-curvature="0"
             d="m 2111.7202,489.24665 c 0.7389,-1.63757 1.3435,-3.94598 1.3435,-5.12976"
             style="fill:none;stroke:#ff0000"
             id="path974" />
          <path
             inkscape:connector-curvature="0"
             d="m 2113.0637,484.11689 c 0,-1.18377 0.4159,-3.45809 0.9242,-5.05404"
             style="fill:none;stroke:#ff0000"
             id="path976" />
          <path
             inkscape:connector-curvature="0"
             d="m 2113.9879,479.06285 c 4.1018,-12.87994 5.8849,-17.75922 8.6628,-23.70509"
             style="fill:none;stroke:#ff0000"
             id="path978" />
          <path
             inkscape:connector-curvature="0"
             d="m 2122.6507,455.35776 c 0.6934,-1.48427 -0.06,-3.84242 -3.4034,-10.66241"
             style="fill:none;stroke:#ff0000"
             id="path980" />
          <path
             inkscape:connector-curvature="0"
             d="m 2119.2473,444.69535 c -2.3616,-4.81615 -4.2938,-9.32793 -4.2938,-10.02613"
             style="fill:none;stroke:#ff0000"
             id="path982" />
          <path
             inkscape:connector-curvature="0"
             d="m 2114.9535,434.66922 c 0,-0.69818 -0.6378,-2.79591 -1.4173,-4.66158"
             style="fill:none;stroke:#ff0000"
             id="path984" />
          <path
             inkscape:connector-curvature="0"
             d="m 2113.5362,430.00764 c -1.8728,-4.4821 -1.8728,-19.07445 0,-22.35046"
             style="fill:none;stroke:#ff0000"
             id="path986" />
          <path
             inkscape:connector-curvature="0"
             d="m 2113.5362,407.65718 c 0.7427,-1.29922 1.3654,-3.23905 1.3838,-4.31073"
             style="fill:none;stroke:#ff0000"
             id="path988" />
          <path
             inkscape:connector-curvature="0"
             d="m 2114.92,403.34645 c 0.037,-2.18698 3.3341,-9.45502 4.6602,-10.27458"
             style="fill:none;stroke:#ff0000"
             id="path990" />
          <path
             inkscape:connector-curvature="0"
             d="m 2119.5802,393.07187 c 0.4801,-0.29669 0.034,-2.83188 -1.0076,-5.72925"
             style="fill:none;stroke:#ff0000"
             id="path992" />
          <path
             inkscape:connector-curvature="0"
             d="m 2118.5726,387.34262 c -1.6017,-4.45445 -1.825,-7.12099 -1.5628,-18.66173"
             style="fill:none;stroke:#ff0000"
             id="path994" />
          <path
             inkscape:connector-curvature="0"
             d="m 2117.0098,368.68089 c 0.29,-12.76737 0.4527,-13.75827 3.1405,-19.13397"
             style="fill:none;stroke:#ff0000"
             id="path996" />
          <path
             inkscape:connector-curvature="0"
             d="m 2120.1503,349.54692 c 5.9374,-11.87468 24.5613,-26.92914 33.3142,-26.92914"
             style="fill:none;stroke:#ff0000"
             id="path998" />
          <path
             inkscape:connector-curvature="0"
             d="m 2153.4645,322.61778 c 3.8364,0 6.8433,2.13188 6.8433,4.85175"
             style="fill:none;stroke:#ff0000"
             id="path1000" />
          <path
             inkscape:connector-curvature="0"
             d="m 2160.3078,327.46953 c 0,0.76773 -1.0065,4.77361 -2.2368,8.90197"
             style="fill:none;stroke:#ff0000"
             id="path1002" />
          <path
             inkscape:connector-curvature="0"
             d="m 2158.071,336.3715 c -1.2303,4.12839 -2.0351,8.03789 -1.7884,8.68784"
             style="fill:none;stroke:#ff0000"
             id="path1004" />
          <path
             inkscape:connector-curvature="0"
             d="m 2156.2826,345.05934 c 0.2466,0.64994 2.4224,2.0659 4.8352,3.14659"
             style="fill:none;stroke:#ff0000"
             id="path1006" />
          <path
             inkscape:connector-curvature="0"
             d="m 2161.1178,348.20593 c 4.1899,1.87662 4.6048,1.89716 9.2408,0.45717"
             style="fill:none;stroke:#ff0000"
             id="path1008" />
          <path
             inkscape:connector-curvature="0"
             d="m 2170.3586,348.6631 c 3.6863,-1.14499 6.0728,-2.8003 9.9212,-6.88133"
             style="fill:none;stroke:#ff0000"
             id="path1010" />
          <path
             inkscape:connector-curvature="0"
             d="m 2180.2798,341.78177 c 17.9674,-19.05342 19.2816,-20.25734 25.1917,-23.07796"
             style="fill:none;stroke:#ff0000"
             id="path1012" />
          <path
             inkscape:connector-curvature="0"
             d="m 2205.4715,318.70381 c 5.2796,-2.51976 7.4583,-2.95125 18.4431,-3.65257"
             style="fill:none;stroke:#ff0000"
             id="path1014" />
          <path
             inkscape:connector-curvature="0"
             d="m 2223.9146,315.05124 c 6.8509,-0.43741 14.4582,-1.18235 16.9051,-1.65544"
             style="fill:none;stroke:#ff0000"
             id="path1016" />
          <path
             inkscape:connector-curvature="0"
             d="m 2240.8197,313.3958 c 5.3227,-1.02912 10.6165,-4.51068 14.4637,-9.51222"
             style="fill:none;stroke:#ff0000"
             id="path1018" />
          <path
             inkscape:connector-curvature="0"
             d="m 2255.2834,303.88358 c 1.5508,-2.0162 6.269,-7.3087 10.4847,-11.7611"
             style="fill:none;stroke:#ff0000"
             id="path1020" />
          <path
             inkscape:connector-curvature="0"
             d="m 1782.4019,718.27257 1.1107,-6.3925 -6.7205,-7.07492 -6.7205,-7.0749 v -10.34639"
             style="fill:none;stroke:#ff0000"
             id="path1022" />
          <path
             inkscape:connector-curvature="0"
             d="m 2284.6657,284.08373 c 6.178,0.0311 11.6578,0.38186 12.1776,0.77955"
             style="fill:none;stroke:#ff0000"
             id="path1024" />
          <path
             inkscape:connector-curvature="0"
             d="m 2296.8433,284.86328 c 0.5197,0.39767 1.9644,0.87008 3.2107,1.04981"
             style="fill:none;stroke:#ff0000"
             id="path1026" />
          <path
             inkscape:connector-curvature="0"
             d="m 2300.054,285.91309 c 1.2459,0.17972 2.7341,1.16004 3.307,2.17853"
             style="fill:none;stroke:#ff0000"
             id="path1028" />
          <path
             inkscape:connector-curvature="0"
             d="m 2303.361,288.09162 c 0.5726,1.01849 2.1009,2.71928 3.3959,3.77952"
             style="fill:none;stroke:#ff0000"
             id="path1030" />
          <path
             inkscape:connector-curvature="0"
             d="m 2306.7569,291.87114 c 1.295,1.06028 5.0515,4.36634 8.3475,7.34682"
             style="fill:none;stroke:#ff0000"
             id="path1032" />
          <path
             inkscape:connector-curvature="0"
             d="m 2315.1044,299.21796 c 6.3436,5.73607 7.2853,6.11844 21.4238,8.69822"
             style="fill:none;stroke:#ff0000"
             id="path1034" />
          <path
             inkscape:connector-curvature="0"
             d="m 2336.5282,307.91618 c 18.0506,3.29361 18.3937,3.42172 24.5363,9.16433"
             style="fill:none;stroke:#ff0000"
             id="path1036" />
          <path
             inkscape:connector-curvature="0"
             d="m 2361.0645,317.08051 c 3.6274,3.39113 7.6755,8.65186 11.1331,14.46737"
             style="fill:none;stroke:#ff0000"
             id="path1038" />
          <path
             inkscape:connector-curvature="0"
             d="m 2372.1976,331.54788 c 2.9883,5.02619 5.4331,9.44915 5.4331,9.82876"
             style="fill:none;stroke:#ff0000"
             id="path1040" />
          <path
             inkscape:connector-curvature="0"
             d="m 2377.6307,341.37664 c 0,1.30987 8.0417,8.20722 11.7478,10.07592"
             style="fill:none;stroke:#ff0000"
             id="path1042" />
          <path
             inkscape:connector-curvature="0"
             d="m 2389.3785,351.45256 c 4.4467,2.24228 15.9853,13.90336 21.2767,21.50274"
             style="fill:none;stroke:#ff0000"
             id="path1044" />
          <path
             inkscape:connector-curvature="0"
             d="m 2410.6552,372.9553 c 7.2566,10.42168 14.8737,24.20448 16.9203,30.61605"
             style="fill:none;stroke:#ff0000"
             id="path1046" />
          <path
             inkscape:connector-curvature="0"
             d="m 2427.5755,403.57135 c 1.1319,3.54642 2.5421,7.93622 3.1335,9.7551"
             style="fill:none;stroke:#ff0000"
             id="path1048" />
          <path
             inkscape:connector-curvature="0"
             d="m 2430.709,413.32645 c 1.3751,4.22902 1.273,44.87936 -0.1232,48.54816"
             style="fill:none;stroke:#ff0000"
             id="path1050" />
          <path
             inkscape:connector-curvature="0"
             d="m 2430.5858,461.87461 c -0.5435,1.42917 -0.9878,3.79257 -0.9878,5.25198"
             style="fill:none;stroke:#ff0000"
             id="path1052" />
          <path
             inkscape:connector-curvature="0"
             d="m 2429.598,467.12659 c 0,2.28886 -1.8618,10.34462 -4.7081,20.3731"
             style="fill:none;stroke:#ff0000"
             id="path1054" />
          <path
             inkscape:connector-curvature="0"
             d="m 2424.8899,487.49969 c -2.7202,9.58358 -7.7604,22.67809 -12.8416,33.3612"
             style="fill:none;stroke:#ff0000"
             id="path1056" />
          <path
             inkscape:connector-curvature="0"
             d="m 2412.0483,520.86089 c -4.627,9.72816 -4.7486,10.25114 -2.8809,12.39119"
             style="fill:none;stroke:#ff0000"
             id="path1058" />
          <path
             inkscape:connector-curvature="0"
             d="m 2409.1674,533.25208 c 4.3449,4.97902 6.7284,21.28162 4.2833,29.29865"
             style="fill:none;stroke:#ff0000"
             id="path1060" />
          <path
             inkscape:connector-curvature="0"
             d="m 2413.4507,562.55073 c -5.5628,18.23988 -23.1294,35.02773 -36.6524,35.02773"
             style="fill:none;stroke:#ff0000"
             id="path1062" />
          <path
             inkscape:connector-curvature="0"
             d="m 2265.7681,292.12248 7.6652,-8.09526 11.2324,0.0565"
             style="fill:none;stroke:#ff0000"
             id="path1064" />
          <path
             inkscape:connector-curvature="0"
             d="m 2363.1909,608.20838 c -10.4672,12.53009 -12.7626,15.82677 -11.02,15.82677"
             style="fill:none;stroke:#ff0000"
             id="path1066" />
          <path
             inkscape:connector-curvature="0"
             d="m 2352.1709,624.03515 c 1.3119,0 11.1631,3.72856 17.6528,6.68142"
             style="fill:none;stroke:#ff0000"
             id="path1068" />
          <path
             inkscape:connector-curvature="0"
             d="m 2369.8237,630.71657 c 2.203,1.00239 4.2266,1.82252 4.4971,1.82252"
             style="fill:none;stroke:#ff0000"
             id="path1070" />
          <path
             inkscape:connector-curvature="0"
             d="m 2374.3208,632.53909 c 2.9068,0 32.8458,14.67927 50.0803,24.55476"
             style="fill:none;stroke:#ff0000"
             id="path1072" />
          <path
             inkscape:connector-curvature="0"
             d="m 2424.4011,657.09385 c 5.7165,3.27564 11.2439,6.42566 12.2834,7.00007"
             style="fill:none;stroke:#ff0000"
             id="path1074" />
          <path
             inkscape:connector-curvature="0"
             d="m 2436.6845,664.09392 c 1.9287,1.06601 19.2735,12.63203 29.0318,19.35933"
             style="fill:none;stroke:#ff0000"
             id="path1076" />
          <path
             inkscape:connector-curvature="0"
             d="m 2465.7163,683.45325 c 13.8487,9.54731 32.9369,26.9679 55.624,50.76488"
             style="fill:none;stroke:#ff0000"
             id="path1078" />
          <path
             inkscape:connector-curvature="0"
             d="m 2521.3403,734.21813 c 7.4867,7.85264 15.7067,17.12728 18.267,20.61036"
             style="fill:none;stroke:#ff0000"
             id="path1080" />
          <path
             inkscape:connector-curvature="0"
             d="m 2539.6073,754.82849 c 2.5606,3.48308 7.2376,8.97003 10.3938,12.19325"
             style="fill:none;stroke:#ff0000"
             id="path1082" />
          <path
             inkscape:connector-curvature="0"
             d="m 2550.0011,767.02174 c 5.2127,5.32355 8.9114,10.50305 15.6599,21.93047"
             style="fill:none;stroke:#ff0000"
             id="path1084" />
          <path
             inkscape:connector-curvature="0"
             d="m 2565.661,788.95221 c 1.299,2.20001 4.4879,6.67539 7.0865,9.94529"
             style="fill:none;stroke:#ff0000"
             id="path1086" />
          <path
             inkscape:connector-curvature="0"
             d="m 2572.7475,798.8975 c 2.5983,3.2699 5.9364,8.10215 7.4178,10.73832"
             style="fill:none;stroke:#ff0000"
             id="path1088" />
          <path
             inkscape:connector-curvature="0"
             d="m 2580.1653,809.63582 c 1.4815,2.63619 3.2329,5.43084 3.8923,6.21036"
             style="fill:none;stroke:#ff0000"
             id="path1090" />
          <path
             inkscape:connector-curvature="0"
             d="m 2584.0576,815.84618 c 0.6594,0.77953 1.5478,2.69292 1.9745,4.25197"
             style="fill:none;stroke:#ff0000"
             id="path1092" />
          <path
             inkscape:connector-curvature="0"
             d="m 2586.0321,820.09815 c 1.2741,4.65796 0.7315,18.66174 -0.9104,23.4976"
             style="fill:none;stroke:#ff0000"
             id="path1094" />
          <path
             inkscape:connector-curvature="0"
             d="m 2585.1217,843.59575 c -0.8295,2.44334 -1.5082,5.70896 -1.5082,7.25692"
             style="fill:none;stroke:#ff0000"
             id="path1096" />
          <path
             inkscape:connector-curvature="0"
             d="m 2583.6135,850.85267 c 0,1.54793 -0.4101,3.55277 -0.9112,4.45515"
             style="fill:none;stroke:#ff0000"
             id="path1098" />
          <path
             inkscape:connector-curvature="0"
             d="m 2582.7023,855.30782 c -0.5014,0.90241 -10.7058,47.76267 -22.677,104.13391"
             style="fill:none;stroke:#ff0000"
             id="path1100" />
          <path
             inkscape:connector-curvature="0"
             d="m 2560.0253,959.44173 c -8.9977,42.37007 -14.863,69.48797 -18.5051,85.39377"
             style="fill:none;stroke:#ff0000"
             id="path1102" />
          <path
             inkscape:connector-curvature="0"
             d="m 2524.7222,1069.7261 c -8.3841,4.0939 -20.4828,9.8484 -33.6655,15.9868"
             style="fill:none;stroke:#ff0000"
             id="path1104" />
          <path
             inkscape:connector-curvature="0"
             d="m 2491.0567,1085.7129 c -20.4707,9.5319 -38.2784,18.2063 -43.6985,21.2419"
             style="fill:none;stroke:#ff0000"
             id="path1106" />
          <path
             inkscape:connector-curvature="0"
             d="m 2376.7983,597.57846 h -4.7277 l -8.8797,10.62992"
             style="fill:none;stroke:#ff0000"
             id="path1108" />
          <path
             inkscape:connector-curvature="0"
             d="m 2422.4729,1111.6566 v 0"
             style="fill:none;stroke:#ff0000"
             id="path1110" />
          <path
             inkscape:connector-curvature="0"
             d="m 2150.4053,1163.6478 v -56.693"
             style="fill:none;stroke:#ff0000"
             id="path1112" />
          <path
             inkscape:connector-curvature="0"
             d="m 2414.9723,1163.6478 v -56.693"
             style="fill:none;stroke:#ff0000"
             id="path1114" />
          <path
             inkscape:connector-curvature="0"
             d="m 2150.4053,1163.6478 h 264.567"
             style="fill:none;stroke:#ff0000"
             id="path1116" />
          <path
             inkscape:connector-curvature="0"
             d="m 2129.815,1106.9548 h 20.5903"
             style="fill:none;stroke:#ff0000"
             id="path1118" />
          <path
             inkscape:connector-curvature="0"
             d="m 2414.9723,1106.9548 h 32.3859"
             style="fill:none;stroke:#ff0000"
             id="path1120" />
        </g>
        <g
           style="stroke:#ff0000;stroke-opacity:1"
           inkscape:label="LAYER_1"
           id="g1126">
          <path
             inkscape:connector-curvature="0"
             d="m 2524.7222,1069.7261 a 85.394656,85.394656 0 0 0 16.798,-24.8906"
             style="fill:none;stroke:#ff0000;stroke-opacity:1"
             id="path1124" />
        </g>
      </g>
    </g>
  </g>
</svg>
